<svg data-v-423bf9ae="" xmlns="http://www.w3.org/2000/svg" viewBox="0 0 295.24526919958726 163" class="iconAbove"><!----><!----><!----><g data-v-423bf9ae="" id="f6e40c0a-355f-4f71-ade0-2abe40470757" fill="white" transform="matrix(4.528301886792453,0,0,4.528301886792453,-1.1320751837964167,89.0981137482625)"><path d="M3.84 5.91C1.85 5.91 0.56 6.83 0.56 8.32C0.56 9.59 1.41 10.25 2.84 10.58C4.17 10.89 4.65 11.16 4.65 11.63C4.65 12.03 4.30 12.21 3.85 12.21C3.32 12.21 2.87 11.83 2.73 11.26L0.25 11.26C0.45 12.94 1.83 13.78 3.86 13.78C5.67 13.78 7.17 13.03 7.17 11.44C7.17 10.00 6.20 9.41 4.84 9.07C3.42 8.72 3.08 8.44 3.08 8.02C3.08 7.70 3.33 7.48 3.68 7.48C4.13 7.48 4.38 7.77 4.49 8.29L6.97 8.29C6.78 6.93 5.70 5.91 3.84 5.91ZM15.47 9.74C15.47 7.81 14.21 5.91 11.72 5.91C9.23 5.91 7.73 7.69 7.73 9.87C7.73 12.50 9.44 13.78 11.58 13.78C13.50 13.78 14.90 12.82 15.33 11.13L12.85 11.13C12.75 11.70 12.32 12.07 11.61 12.07C10.89 12.07 10.35 11.72 10.22 10.47L15.43 10.47C15.46 10.22 15.47 9.97 15.47 9.74ZM11.59 7.62C12.26 7.62 12.70 8.05 12.84 8.93L10.30 8.93C10.47 8.01 10.93 7.62 11.59 7.62ZM24.08 7.94C23.88 6.64 22.97 5.91 21.43 5.91C20.75 5.91 20.22 6.06 19.75 6.34L19.08 7.27L19.08 6.10L16.56 6.10L16.56 13.58L19.08 13.58L19.08 10.05C19.08 8.36 19.63 7.62 20.40 7.62C21.15 7.62 21.55 8.04 21.60 8.75C21.63 9.13 21.63 9.53 21.63 9.77L21.63 13.58L24.15 13.58L24.15 9.35C24.15 8.75 24.14 8.32 24.08 7.94ZM33.43 3.29L30.91 3.29L30.91 7.07L30.42 6.27C30.04 6.05 29.32 5.91 28.70 5.91C26.78 5.91 25.16 7.35 25.16 10.01C25.16 12.22 26.42 13.78 28.45 13.78C29.20 13.78 29.93 13.62 30.35 13.31L30.91 12.49L30.91 13.58L33.43 13.58ZM29.32 12.07C28.43 12.07 27.73 11.28 27.73 9.88C27.73 8.36 28.41 7.62 29.39 7.62C30.14 7.62 30.91 8.12 30.91 9.62L30.91 9.94C30.91 11.51 30.24 12.07 29.32 12.07ZM42.80 6.10L40.28 6.10L40.28 7.07L39.79 6.27C39.41 6.05 38.68 5.91 38.07 5.91C36.15 5.91 34.52 7.35 34.52 10.01C34.52 12.22 35.78 13.78 37.81 13.78C38.57 13.78 39.30 13.62 39.72 13.31L40.28 12.49L40.28 16.32L42.80 16.32ZM38.68 12.07C37.80 12.07 37.10 11.28 37.10 9.88C37.10 8.36 37.77 7.62 38.75 7.62C39.51 7.62 40.28 8.12 40.28 9.62L40.28 9.94C40.28 11.51 39.61 12.07 38.68 12.07ZM51.76 6.10L49.24 6.10L49.24 10.33C49.24 11.33 48.76 12.07 47.96 12.07C47.17 12.07 46.83 11.65 46.75 10.93C46.70 10.56 46.69 10.15 46.69 9.91L46.69 6.10L44.17 6.10L44.17 10.47C44.17 11.07 44.18 11.51 44.24 11.89C44.41 12.91 45.35 13.78 46.89 13.78C47.57 13.78 48.10 13.62 48.57 13.34L49.24 12.32L49.24 13.58L51.76 13.58ZM54.53 3.07C53.75 3.07 53.23 3.54 53.23 4.30C53.23 5.05 53.75 5.53 54.53 5.53C55.31 5.53 55.83 5.05 55.83 4.30C55.83 3.54 55.31 3.07 54.53 3.07ZM55.79 13.58L55.79 6.10L53.27 6.10L53.27 13.58ZM60.35 10.81L62.36 13.58L65.45 13.58L62.24 9.53L65.41 6.10L62.45 6.10L59.82 9.24L59.82 3.29L57.30 3.29L57.30 13.58L59.82 13.58L59.82 11.40Z"></path></g><!----><g data-v-423bf9ae="" id="aea42fc2-46d3-4459-896d-06b27d832f42" transform="matrix(1.1134341845686528,0,0,1.1134341845686528,92.29947088523959,-10.080233712818817)" stroke="none" fill="white"><path d="M50.107 9.523L14.832 29.724v40.367l35.275 20.263 34.811-20.268V29.764L50.107 9.523zm-.009 2.612l31.318 18.217-9.599 5.581L40.5 17.634l9.598-5.499zM17.099 68.78V33.084l31.645 17.588.217 36.409L17.099 68.78zm32.76-20.077L17.586 30.76l11.353-6.504 31.417 18.339-10.497 6.108zM82.65 68.784L51.227 87.077l-.217-36.422 10.484-6.096v17.558l.006-.013v.351l2.92-6.203 3.199 2.189 1.943-4.893 3.199 2.703V38.009l9.889-5.753v36.528z"></path></g><!----></svg>